<mxfile host="app.diagrams.net" modified="2024-05-17T10:02:19.600Z" agent="Mozilla/5.0 (Windows NT 10.0; Win64; x64) AppleWebKit/537.36 (KHTML, like Gecko) Chrome/124.0.0.0 Safari/537.36" etag="PiNi__Mkbs_n--bdAubp" version="24.4.3" type="github">
  <diagram name="Страница — 1" id="Pmskii_91bTWeBg1kff7">
    <mxGraphModel dx="1615" dy="857" grid="1" gridSize="10" guides="1" tooltips="1" connect="1" arrows="1" fold="1" page="1" pageScale="1" pageWidth="827" pageHeight="1169" math="0" shadow="0">
      <root>
        <mxCell id="0" />
        <mxCell id="1" parent="0" />
        <mxCell id="o8MNEEBRWlQBnkrjZcF8-59" value="" style="rounded=0;whiteSpace=wrap;html=1;" parent="1" vertex="1">
          <mxGeometry x="150" y="20" width="510" height="930" as="geometry" />
        </mxCell>
        <mxCell id="o8MNEEBRWlQBnkrjZcF8-1" value="Покупатель" style="shape=umlActor;verticalLabelPosition=bottom;verticalAlign=top;html=1;outlineConnect=0;" parent="1" vertex="1">
          <mxGeometry x="70" y="100" width="30" height="60" as="geometry" />
        </mxCell>
        <mxCell id="o8MNEEBRWlQBnkrjZcF8-61" value="Интернет-магазин" style="text;html=1;align=center;verticalAlign=middle;whiteSpace=wrap;rounded=0;fontStyle=1" parent="1" vertex="1">
          <mxGeometry x="325" y="20" width="160" height="30" as="geometry" />
        </mxCell>
        <mxCell id="4LxtryDFUk3KSnYK9tjo-4" value="Просматривать&amp;nbsp;&lt;div&gt;категории товаров&lt;/div&gt;" style="ellipse;whiteSpace=wrap;html=1;" vertex="1" parent="1">
          <mxGeometry x="340" y="130" width="160" height="60" as="geometry" />
        </mxCell>
        <mxCell id="4LxtryDFUk3KSnYK9tjo-5" value="Искать товары" style="ellipse;whiteSpace=wrap;html=1;" vertex="1" parent="1">
          <mxGeometry x="340" y="60" width="160" height="60" as="geometry" />
        </mxCell>
        <mxCell id="4LxtryDFUk3KSnYK9tjo-6" value="Добавлять товары&amp;nbsp;&lt;div&gt;в корзину&lt;/div&gt;" style="ellipse;whiteSpace=wrap;html=1;" vertex="1" parent="1">
          <mxGeometry x="340" y="200" width="160" height="60" as="geometry" />
        </mxCell>
        <mxCell id="4LxtryDFUk3KSnYK9tjo-7" value="Удалять товары&amp;nbsp;&lt;div&gt;из корзины&lt;/div&gt;" style="ellipse;whiteSpace=wrap;html=1;" vertex="1" parent="1">
          <mxGeometry x="340" y="270" width="160" height="60" as="geometry" />
        </mxCell>
        <mxCell id="4LxtryDFUk3KSnYK9tjo-8" value="Изменять&amp;nbsp;&lt;div&gt;количество товаров&amp;nbsp;&lt;/div&gt;&lt;div&gt;в корзине&lt;/div&gt;" style="ellipse;whiteSpace=wrap;html=1;" vertex="1" parent="1">
          <mxGeometry x="340" y="340" width="160" height="60" as="geometry" />
        </mxCell>
        <mxCell id="4LxtryDFUk3KSnYK9tjo-9" value="Оформлять заказ" style="ellipse;whiteSpace=wrap;html=1;" vertex="1" parent="1">
          <mxGeometry x="340" y="410" width="160" height="60" as="geometry" />
        </mxCell>
        <mxCell id="4LxtryDFUk3KSnYK9tjo-10" value="Просматривать&amp;nbsp;&lt;div&gt;историю заказов&lt;/div&gt;" style="ellipse;whiteSpace=wrap;html=1;" vertex="1" parent="1">
          <mxGeometry x="340" y="480" width="160" height="60" as="geometry" />
        </mxCell>
        <mxCell id="4LxtryDFUk3KSnYK9tjo-11" value="Отслеживать&amp;nbsp;&lt;div&gt;статус доставки&lt;/div&gt;" style="ellipse;whiteSpace=wrap;html=1;" vertex="1" parent="1">
          <mxGeometry x="340" y="555" width="160" height="60" as="geometry" />
        </mxCell>
        <mxCell id="4LxtryDFUk3KSnYK9tjo-12" value="Вводить&amp;nbsp;&lt;div&gt;данные&amp;nbsp;&lt;span style=&quot;background-color: initial;&quot;&gt;для оплаты&amp;nbsp;&lt;/span&gt;&lt;/div&gt;&lt;div&gt;&lt;span style=&quot;background-color: initial;&quot;&gt;и&amp;nbsp;&lt;/span&gt;&lt;span style=&quot;background-color: initial;&quot;&gt;доставки&lt;/span&gt;&lt;/div&gt;" style="ellipse;whiteSpace=wrap;html=1;" vertex="1" parent="1">
          <mxGeometry x="340" y="630" width="160" height="60" as="geometry" />
        </mxCell>
        <mxCell id="4LxtryDFUk3KSnYK9tjo-13" value="Получать&amp;nbsp;&lt;div&gt;подтверждение заказа&lt;div&gt;по эл. почте&lt;/div&gt;&lt;/div&gt;" style="ellipse;whiteSpace=wrap;html=1;" vertex="1" parent="1">
          <mxGeometry x="340" y="700" width="160" height="60" as="geometry" />
        </mxCell>
        <mxCell id="4LxtryDFUk3KSnYK9tjo-14" value="Добавлять новые&amp;nbsp;&lt;div&gt;товары&lt;/div&gt;" style="ellipse;whiteSpace=wrap;html=1;" vertex="1" parent="1">
          <mxGeometry x="340" y="770" width="160" height="60" as="geometry" />
        </mxCell>
        <mxCell id="4LxtryDFUk3KSnYK9tjo-15" value="Администратор&lt;div&gt;магазина&lt;/div&gt;" style="shape=umlActor;verticalLabelPosition=bottom;verticalAlign=top;html=1;outlineConnect=0;" vertex="1" parent="1">
          <mxGeometry x="710" y="70" width="30" height="60" as="geometry" />
        </mxCell>
        <mxCell id="4LxtryDFUk3KSnYK9tjo-19" value="" style="endArrow=none;html=1;rounded=0;entryX=0;entryY=0.5;entryDx=0;entryDy=0;" edge="1" parent="1" target="4LxtryDFUk3KSnYK9tjo-5">
          <mxGeometry width="50" height="50" relative="1" as="geometry">
            <mxPoint x="130" y="89.67" as="sourcePoint" />
            <mxPoint x="220.17999999999995" y="89.88000000000004" as="targetPoint" />
          </mxGeometry>
        </mxCell>
        <mxCell id="4LxtryDFUk3KSnYK9tjo-20" value="" style="endArrow=none;html=1;rounded=0;entryX=0;entryY=0.5;entryDx=0;entryDy=0;" edge="1" parent="1" target="4LxtryDFUk3KSnYK9tjo-4">
          <mxGeometry width="50" height="50" relative="1" as="geometry">
            <mxPoint x="130" y="99.67" as="sourcePoint" />
            <mxPoint x="340" y="100" as="targetPoint" />
            <Array as="points">
              <mxPoint x="170" y="100" />
              <mxPoint x="170" y="160" />
            </Array>
          </mxGeometry>
        </mxCell>
        <mxCell id="4LxtryDFUk3KSnYK9tjo-21" value="" style="endArrow=none;html=1;rounded=0;entryX=0;entryY=0.5;entryDx=0;entryDy=0;" edge="1" parent="1" target="4LxtryDFUk3KSnYK9tjo-6">
          <mxGeometry width="50" height="50" relative="1" as="geometry">
            <mxPoint x="130" y="109.67" as="sourcePoint" />
            <mxPoint x="340" y="170" as="targetPoint" />
            <Array as="points">
              <mxPoint x="170" y="110" />
              <mxPoint x="170" y="230" />
            </Array>
          </mxGeometry>
        </mxCell>
        <mxCell id="4LxtryDFUk3KSnYK9tjo-22" value="" style="endArrow=none;html=1;rounded=0;entryX=0;entryY=0.5;entryDx=0;entryDy=0;" edge="1" parent="1" target="4LxtryDFUk3KSnYK9tjo-7">
          <mxGeometry width="50" height="50" relative="1" as="geometry">
            <mxPoint x="130" y="120" as="sourcePoint" />
            <mxPoint x="340" y="240.33" as="targetPoint" />
            <Array as="points">
              <mxPoint x="170" y="120.33" />
              <mxPoint x="170" y="300" />
            </Array>
          </mxGeometry>
        </mxCell>
        <mxCell id="4LxtryDFUk3KSnYK9tjo-23" value="" style="endArrow=none;html=1;rounded=0;entryX=0;entryY=0.5;entryDx=0;entryDy=0;" edge="1" parent="1" target="4LxtryDFUk3KSnYK9tjo-8">
          <mxGeometry width="50" height="50" relative="1" as="geometry">
            <mxPoint x="130" y="130" as="sourcePoint" />
            <mxPoint x="340" y="310" as="targetPoint" />
            <Array as="points">
              <mxPoint x="170" y="130.32999999999998" />
              <mxPoint x="170" y="370" />
            </Array>
          </mxGeometry>
        </mxCell>
        <mxCell id="4LxtryDFUk3KSnYK9tjo-24" value="" style="endArrow=none;html=1;rounded=0;entryX=0;entryY=0.5;entryDx=0;entryDy=0;" edge="1" parent="1" target="4LxtryDFUk3KSnYK9tjo-9">
          <mxGeometry width="50" height="50" relative="1" as="geometry">
            <mxPoint x="130" y="140" as="sourcePoint" />
            <mxPoint x="340" y="380" as="targetPoint" />
            <Array as="points">
              <mxPoint x="170" y="140.32999999999998" />
              <mxPoint x="170" y="440" />
            </Array>
          </mxGeometry>
        </mxCell>
        <mxCell id="4LxtryDFUk3KSnYK9tjo-25" value="" style="endArrow=none;html=1;rounded=0;entryX=0;entryY=0.5;entryDx=0;entryDy=0;" edge="1" parent="1" target="4LxtryDFUk3KSnYK9tjo-10">
          <mxGeometry width="50" height="50" relative="1" as="geometry">
            <mxPoint x="130" y="150" as="sourcePoint" />
            <mxPoint x="340" y="450" as="targetPoint" />
            <Array as="points">
              <mxPoint x="170" y="150.32999999999998" />
              <mxPoint x="170" y="510" />
            </Array>
          </mxGeometry>
        </mxCell>
        <mxCell id="4LxtryDFUk3KSnYK9tjo-26" value="" style="endArrow=none;html=1;rounded=0;entryX=0;entryY=0.5;entryDx=0;entryDy=0;" edge="1" parent="1" target="4LxtryDFUk3KSnYK9tjo-11">
          <mxGeometry width="50" height="50" relative="1" as="geometry">
            <mxPoint x="130" y="160" as="sourcePoint" />
            <mxPoint x="340" y="520" as="targetPoint" />
            <Array as="points">
              <mxPoint x="170" y="160.32999999999998" />
              <mxPoint x="170" y="585" />
            </Array>
          </mxGeometry>
        </mxCell>
        <mxCell id="4LxtryDFUk3KSnYK9tjo-27" value="" style="endArrow=none;html=1;rounded=0;entryX=0;entryY=0.5;entryDx=0;entryDy=0;" edge="1" parent="1" target="4LxtryDFUk3KSnYK9tjo-12">
          <mxGeometry width="50" height="50" relative="1" as="geometry">
            <mxPoint x="130" y="170" as="sourcePoint" />
            <mxPoint x="340" y="595" as="targetPoint" />
            <Array as="points">
              <mxPoint x="170" y="170.32999999999998" />
              <mxPoint x="170" y="660" />
            </Array>
          </mxGeometry>
        </mxCell>
        <mxCell id="4LxtryDFUk3KSnYK9tjo-28" value="" style="endArrow=none;html=1;rounded=0;entryX=0;entryY=0.5;entryDx=0;entryDy=0;" edge="1" parent="1" target="4LxtryDFUk3KSnYK9tjo-13">
          <mxGeometry width="50" height="50" relative="1" as="geometry">
            <mxPoint x="130" y="180" as="sourcePoint" />
            <mxPoint x="340" y="670" as="targetPoint" />
            <Array as="points">
              <mxPoint x="170" y="180.32999999999998" />
              <mxPoint x="170" y="730" />
            </Array>
          </mxGeometry>
        </mxCell>
        <mxCell id="4LxtryDFUk3KSnYK9tjo-29" value="" style="endArrow=none;html=1;rounded=0;entryX=0;entryY=0.5;entryDx=0;entryDy=0;" edge="1" parent="1" target="4LxtryDFUk3KSnYK9tjo-14">
          <mxGeometry width="50" height="50" relative="1" as="geometry">
            <mxPoint x="130" y="190" as="sourcePoint" />
            <mxPoint x="340" y="740" as="targetPoint" />
            <Array as="points">
              <mxPoint x="170" y="190.32999999999998" />
              <mxPoint x="170" y="800" />
            </Array>
          </mxGeometry>
        </mxCell>
      </root>
    </mxGraphModel>
  </diagram>
</mxfile>
